# xmcd
#
# Track frame offsets: 
#        150
#        16123
#        33976
#        54107
#        67824
#        83258
#        95056
#        110283
#        118353
#        129823
#        145411
#        158243
#
# Disc length: 2360 seconds
#
# Revision: 0
# Processed by: cddbd v1.5.2PL0 Copyright (c) Steve Scherf et al.
# Submitted via: ExactAudioCopyFreeDBPlugin 1.0
#
DISCID=8c09360c
DTITLE=Trampled by Turtles  - Life is Good on the Open Road 
DYEAR=2018
DGENRE=Progressive Bluegrass
TTITLE0=Kelly's Bar
TTITLE1=We All Get Lonely
TTITLE2=The Middle
TTITLE3=Thank You, John Steinbeck
TTITLE4=Annihilate
TTITLE5=Right Back Where We Started
TTITLE6=Life Is Good On The Open Road
TTITLE7=Blood In The Water
TTITLE8=I Went To Hollywood
TTITLE9=I'm Not Here Anymore
TTITLE10=Good Land
TTITLE11=I Learn The Hard Way
EXTD=
EXTT0=
EXTT1=
EXTT2=
EXTT3=
EXTT4=
EXTT5=
EXTT6=
EXTT7=
EXTT8=
EXTT9=
EXTT10=
EXTT11=
PLAYORDER=
